<svg width="810" height="420" viewBox="0 0 810 420" fill="none" xmlns="http://www.w3.org/2000/svg">
<g clip-path="url(#clip0_273_155662)">
<path d="M633.259 231.907C632.158 231.907 631.674 231.423 631.674 230.324V227.947H625.646C624.545 227.947 624.062 227.463 624.062 226.362V221.214C624.062 220.114 624.545 219.629 625.646 219.629H637.484C638.232 219.629 638.628 219.058 638.628 218.353C638.628 217.341 638.232 216.945 637.484 216.856L630.882 215.933C626.746 215.317 624.062 213.556 624.062 208.628V204.007C624.062 199.43 626.878 196.789 631.674 196.35V193.885C631.674 192.786 632.158 192.301 633.259 192.301H639.639C640.74 192.301 641.225 192.786 641.225 193.885V196.262H645.492C646.593 196.262 647.078 196.746 647.078 197.846V203.082C647.078 204.182 646.593 204.667 645.492 204.667H635.24C634.491 204.667 634.051 205.196 634.051 205.987C634.051 206.779 634.491 207.307 635.24 207.396L641.796 208.276C645.933 208.892 648.661 210.651 648.661 215.58V220.201C648.661 224.69 645.888 227.374 641.225 227.858V230.324C641.225 231.423 640.74 231.907 639.639 231.907H633.259Z" fill="#F1454D"/>
<path d="M633.259 231.907C632.158 231.907 631.674 231.423 631.674 230.324V227.947H625.646C624.545 227.947 624.062 227.463 624.062 226.362V221.214C624.062 220.114 624.545 219.629 625.646 219.629H637.484C638.232 219.629 638.628 219.058 638.628 218.353C638.628 217.341 638.232 216.945 637.484 216.856L630.882 215.933C626.746 215.317 624.062 213.556 624.062 208.628V204.007C624.062 199.43 626.878 196.789 631.674 196.35V193.885C631.674 192.786 632.158 192.301 633.259 192.301H639.639C640.74 192.301 641.225 192.786 641.225 193.885V196.262H645.492C646.593 196.262 647.078 196.746 647.078 197.845V203.082C647.078 204.182 646.593 204.667 645.492 204.667H635.24C634.491 204.667 634.051 205.196 634.051 205.987C634.051 206.779 634.491 207.307 635.24 207.396L641.796 208.276C645.933 208.892 648.661 210.651 648.661 215.58V220.201C648.661 224.69 645.888 227.374 641.225 227.858V230.324C641.225 231.423 640.74 231.907 639.639 231.907H633.259Z" stroke="#F1454D" stroke-width="0.92102" stroke-miterlimit="10"/>
<path d="M146.515 183.338C147.252 178.836 151.514 175.771 156.016 176.507C160.52 177.244 163.583 181.507 162.847 186.01C162.111 190.512 157.848 193.577 153.346 192.84C148.842 192.104 145.779 187.842 146.515 183.338ZM165.334 191.98L167.731 193.626C168.719 192.189 169.457 190.607 169.924 188.923L167.124 188.146C167.25 187.694 167.354 187.232 167.432 186.759C167.627 185.568 167.648 184.387 167.519 183.242L170.41 182.92C170.217 181.189 169.743 179.51 168.997 177.931L166.364 179.172C165.658 177.678 164.671 176.328 163.46 175.202L165.44 173.069C164.16 171.881 162.703 170.921 161.111 170.212L159.932 172.868C158.943 172.428 157.884 172.105 156.766 171.923L157.235 169.058C155.511 168.776 153.769 168.779 152.057 169.067L152.538 171.935C150.889 172.215 149.327 172.81 147.931 173.668L146.406 171.186C144.923 172.096 143.609 173.237 142.498 174.574L144.738 176.432C143.698 177.684 142.883 179.142 142.371 180.754L139.601 179.876C139.369 180.606 139.189 181.36 139.065 182.121C138.91 183.069 138.84 184.034 138.859 184.99L141.767 184.934C141.8 186.622 142.164 188.252 142.808 189.75L140.131 190.897C140.816 192.494 141.751 193.96 142.914 195.254L145.08 193.308C146.175 194.526 147.502 195.543 149.008 196.281L147.731 198.893C149.117 199.57 150.596 200.039 152.127 200.29C152.314 200.32 152.503 200.348 152.69 200.372L153.056 197.489C154.748 197.703 156.41 197.578 157.971 197.164L158.714 199.977C160.395 199.534 161.985 198.819 163.436 197.854L161.825 195.429C163.195 194.519 164.391 193.351 165.334 191.98Z" fill="#4CC3C5"/>
<path d="M501.778 95.0506C502.514 90.5483 506.777 87.4833 511.28 88.2197C515.783 88.9561 518.847 93.2197 518.111 97.722C517.375 102.224 513.111 105.289 508.609 104.553C504.107 103.816 501.042 99.5541 501.778 95.0506ZM520.597 103.692L522.996 105.339C523.982 103.901 524.72 102.319 525.188 100.637L522.387 99.8588C522.513 99.4068 522.618 98.9446 522.695 98.4723C522.89 97.2801 522.91 96.0993 522.782 94.9541L525.673 94.6328C525.48 92.901 525.005 91.2225 524.26 89.643L521.628 90.8848C520.921 89.3904 519.934 88.0407 518.723 86.9145L520.704 84.7814C519.424 83.5943 517.968 82.6332 516.374 81.926L515.195 84.5809C514.207 84.1416 513.147 83.819 512.029 83.6362L512.498 80.7706C510.775 80.4887 509.032 80.4912 507.32 80.7794L507.803 83.6476C506.152 83.927 504.59 84.5225 503.194 85.3808L501.67 82.8985C500.187 83.8089 498.872 84.9491 497.762 86.286L500.002 88.1448C498.961 89.3967 498.147 90.8543 497.634 92.4668L494.865 91.5882C494.632 92.3182 494.452 93.0737 494.329 93.8329C494.173 94.7814 494.104 95.7463 494.122 96.7024L497.029 96.6466C497.062 98.3352 497.428 99.9642 498.071 101.462L495.394 102.609C496.078 104.206 497.015 105.673 498.177 106.966L500.345 105.021C501.438 106.239 502.765 107.256 504.272 107.994L502.996 110.605C504.381 111.282 505.859 111.752 507.39 112.003C507.577 112.034 507.766 112.06 507.952 112.084L508.321 109.201C510.012 109.416 511.673 109.29 513.236 108.876L513.978 111.69C515.659 111.247 517.248 110.532 518.7 109.567L517.088 107.142C518.458 106.231 519.654 105.063 520.597 103.692Z" fill="#4CC3C5"/>
<path d="M393.297 13.9031C389.515 13.9031 386.325 16.6138 385.715 20.3505C385.385 22.3731 385.863 24.4058 387.063 26.0754C388.263 27.7451 390.038 28.8459 392.06 29.176C392.473 29.2433 392.892 29.2776 393.306 29.2776C397.088 29.2776 400.276 26.5668 400.887 22.8314C401.572 18.6479 398.725 14.689 394.541 14.0047C394.13 13.9374 393.711 13.9031 393.297 13.9031ZM391.236 37.8707C391.042 37.8466 390.845 37.8174 390.652 37.7869C389.064 37.5266 387.53 37.0391 386.094 36.3382L385.566 36.0805L386.848 33.456C385.673 32.8161 384.606 32.0086 383.665 31.0462L381.49 33.0015L381.098 32.5647C379.893 31.2227 378.921 29.7029 378.211 28.0447L377.979 27.5038L380.666 26.3522C380.19 25.0965 379.907 23.7888 379.822 22.4493L376.903 22.5051L376.892 21.9173C376.873 20.9282 376.944 19.9264 377.105 18.9424C377.233 18.154 377.421 17.3706 377.661 16.6151L377.839 16.0552L380.621 16.9376C381.082 15.6781 381.724 14.5036 382.539 13.4333L380.291 11.5669L380.666 11.1149C381.817 9.72841 383.18 8.54636 384.719 7.60172L385.219 7.29447L386.751 9.78682C387.924 9.13421 389.176 8.66316 390.485 8.38256L390 5.50041L390.58 5.40391C391.473 5.25282 392.383 5.17664 393.288 5.17664C394.174 5.17664 395.07 5.25027 395.951 5.39502L396.53 5.48897L396.06 8.36734C396.806 8.52351 397.539 8.74188 398.248 9.02121L399.432 6.35362L399.969 6.59234C401.622 7.32621 403.135 8.32288 404.461 9.55446L404.892 9.95443L402.902 12.0976C403.842 13.0499 404.63 14.1278 405.254 15.3124L407.897 14.0643L408.148 14.5964C408.922 16.2368 409.414 17.9775 409.614 19.7715L409.678 20.3556L406.776 20.6781C406.847 21.7129 406.798 22.7502 406.632 23.771C406.584 24.0681 406.525 24.3614 406.457 24.6509L409.268 25.4317L409.111 25.998C408.626 27.7425 407.86 29.3829 406.837 30.8761L406.503 31.3598L404.096 29.7054C403.289 30.7732 402.337 31.7102 401.252 32.5L402.872 34.9352L402.382 35.2615C400.876 36.262 399.228 37.0022 397.485 37.4619L396.917 37.6117L396.17 34.7866C395.231 34.9923 394.271 35.0965 393.309 35.0965C392.937 35.0965 392.562 35.0812 392.187 35.0495L391.819 37.9443L391.236 37.8707Z" fill="#4CC3C5"/>
<path d="M393.306 28.691C392.924 28.691 392.537 28.6592 392.156 28.597C390.287 28.291 388.649 27.2741 387.541 25.7327C386.432 24.19 385.99 22.3122 386.295 20.4445C386.86 16.9948 389.804 14.491 393.297 14.491C393.679 14.491 394.067 14.5215 394.448 14.585C396.315 14.8897 397.954 15.9067 399.063 17.4493C400.171 18.9907 400.613 20.8685 400.307 22.7362C399.743 26.1859 396.799 28.691 393.306 28.691ZM393.288 4.5901C392.351 4.5901 391.407 4.6688 390.482 4.8237L389.323 5.01923L389.518 6.17846L389.813 7.93694C388.827 8.1896 387.875 8.54767 386.963 9.00983L386.028 7.48747L385.414 6.48571L384.412 7.10151C382.819 8.07916 381.407 9.30311 380.215 10.7391L379.463 11.6431L380.368 12.3948L381.74 13.5337C381.153 14.3716 380.663 15.2668 380.273 16.2101L378.577 15.6718L377.456 15.3176L377.101 16.4374C376.853 17.2208 376.658 18.0321 376.525 18.8472C376.359 19.8655 376.284 20.9028 376.304 21.9287L376.327 23.1044L377.501 23.0816L379.283 23.0473C379.388 24.063 379.604 25.061 379.928 26.0298L378.289 26.7332L377.208 27.1953L377.671 28.2758C378.407 29.9924 379.412 31.5668 380.66 32.9558L381.446 33.8306L382.32 33.0447L383.648 31.8525C384.391 32.5546 385.203 33.1704 386.078 33.6922L385.296 35.2933L384.78 36.3497L385.837 36.8651C387.325 37.5927 388.913 38.098 390.557 38.3672C390.758 38.3989 390.961 38.4294 391.162 38.4548L392.327 38.6021L392.476 37.4365L392.701 35.6704C392.904 35.6793 393.107 35.6843 393.309 35.6843C394.125 35.6843 394.94 35.612 395.743 35.4698L396.199 37.194L396.498 38.3304L397.635 38.0307C399.441 37.5546 401.148 36.7864 402.707 35.7504L403.686 35.1003L403.036 34.1214L402.048 32.6346C402.848 32.0023 403.573 31.2887 404.216 30.5028L405.687 31.5122L406.656 32.1763L407.321 31.2075C408.382 29.6636 409.175 27.9635 409.677 26.1555L409.992 25.0229L408.86 24.708L407.147 24.2319C407.171 24.1088 407.193 23.9869 407.212 23.865C407.356 22.9864 407.415 22.0938 407.389 21.2012L409.161 21.0044L410.327 20.8749L410.198 19.7068C409.992 17.8467 409.481 16.0425 408.681 14.345L408.179 13.2823L407.115 13.7838L405.501 14.5456C404.994 13.6644 404.393 12.8442 403.709 12.0938L404.922 10.7861L405.721 9.92399L404.86 9.12409C403.485 7.84807 401.921 6.81584 400.208 6.05531L399.134 5.57791L398.658 6.65204L397.935 8.2785C397.539 8.14011 397.136 8.01948 396.728 7.9179L397.015 6.16448L397.205 5.00401L396.045 4.81483C395.133 4.66501 394.205 4.5901 393.288 4.5901ZM393.306 29.8667C397.285 29.8667 400.805 26.9782 401.468 22.9267C402.204 18.4232 399.14 14.1609 394.637 13.4245C394.186 13.3508 393.739 13.3153 393.297 13.3153C389.317 13.3153 385.799 16.2025 385.136 20.2553C384.398 24.7575 387.463 29.0198 391.965 29.7563C392.416 29.8299 392.863 29.8667 393.306 29.8667ZM393.288 5.76455C394.144 5.76455 395.002 5.83437 395.856 5.97403L395.387 8.83969C396.503 9.02252 397.563 9.34501 398.552 9.78559L399.732 7.12944C401.324 7.83665 402.78 8.79779 404.06 9.9862L402.081 12.1193C403.292 13.2455 404.279 14.5951 404.985 16.0895L407.617 14.8465C408.362 16.426 408.838 18.1057 409.03 19.8363L406.14 20.1575C406.268 21.304 406.247 22.4836 406.052 23.6758C405.975 24.1494 405.871 24.6103 405.745 25.0623L408.545 25.8406C408.078 27.5229 407.34 29.1049 406.352 30.5422L403.954 28.8967C403.012 30.2667 401.816 31.4348 400.446 32.3464L402.057 34.7715C400.604 35.7364 399.016 36.45 397.335 36.8943L396.592 34.0808C395.536 34.3601 394.434 34.5086 393.309 34.5086C392.769 34.5086 392.224 34.4743 391.677 34.4045L391.31 37.288C391.124 37.2651 390.933 37.2372 390.748 37.2067C389.217 36.9566 387.737 36.4855 386.352 35.81L387.628 33.1971C386.121 32.4607 384.794 31.4436 383.701 30.2248L381.535 32.1712C380.372 30.8774 379.435 29.4109 378.751 27.8137L381.427 26.6659C380.785 25.1689 380.42 23.5387 380.386 21.85L377.48 21.9059C377.461 20.9511 377.531 19.9849 377.685 19.0364C377.81 18.2772 377.99 17.523 378.221 16.7929L380.99 17.6715C381.503 16.0578 382.317 14.6002 383.358 13.3496L381.119 11.4895C382.228 10.1525 383.544 9.01362 385.027 8.102L386.55 10.5855C387.948 9.72719 389.51 9.13042 391.159 8.85236L390.677 5.98293C391.541 5.83818 392.415 5.76455 393.288 5.76455Z" fill="#4CC3C5"/>
<path d="M356.761 53.0916C354.666 46.6963 358.165 39.7892 364.561 37.6943C370.956 35.5993 377.864 39.0985 379.958 45.4939C382.053 51.8892 378.554 58.7975 372.158 60.8912C365.763 62.9861 358.856 59.4869 356.761 53.0916ZM388.672 51.794L393.245 52.3603C393.584 49.6178 393.467 46.855 392.897 44.148L388.393 45.0965C388.24 44.369 388.05 43.644 387.812 42.9215C387.217 41.1033 386.385 39.4274 385.368 37.9101L389.2 35.3492C387.665 33.0549 385.772 31.0412 383.572 29.364L380.776 33.0308C378.692 31.445 376.319 30.2667 373.795 29.5671L375.023 25.1233C372.357 24.3856 369.606 24.0974 366.851 24.265L367.129 28.8599C365.418 28.9627 363.692 29.2814 361.988 29.8401L360.556 25.4686C357.927 26.3294 355.479 27.6055 353.281 29.2586L356.053 32.9419C353.936 34.5379 352.174 36.516 350.836 38.7418L346.882 36.3624C345.46 38.7253 344.442 41.2875 343.856 43.9779L348.364 44.9581C347.813 47.4771 347.731 50.1218 348.187 52.764L343.652 53.5499C343.859 54.7447 344.156 55.9382 344.536 57.0961C345.009 58.5436 345.616 59.9516 346.34 61.2822L350.387 59.0819C351.666 61.4321 353.367 63.4585 355.366 65.0951L352.438 68.6603C354.566 70.4086 356.953 71.7862 359.533 72.7588L361.159 68.4406C363.586 69.3561 366.195 69.8182 368.85 69.756L368.961 74.3599C371.404 74.3015 373.827 73.8825 376.163 73.1181C376.447 73.0242 376.733 72.9251 377.014 72.8223L375.425 68.499C377.961 67.5671 380.206 66.1794 382.101 64.4564L385.199 67.8718C387.24 66.0206 388.952 63.8571 390.291 61.441L386.254 59.2063C387.516 56.9247 388.346 54.4095 388.672 51.794Z" fill="#F1454D"/>
<path d="M216.191 333.766C215.433 333.766 215.1 333.432 215.1 332.675V331.039H210.949C210.191 331.039 209.858 330.705 209.858 329.949V326.402C209.858 325.646 210.191 325.311 210.949 325.311H219.101C219.615 325.311 219.888 324.918 219.888 324.433C219.888 323.736 219.615 323.463 219.101 323.402L214.554 322.766C211.707 322.342 209.858 321.129 209.858 317.735V314.552C209.858 311.401 211.797 309.583 215.1 309.281V307.583C215.1 306.826 215.433 306.492 216.191 306.492H220.585C221.343 306.492 221.677 306.826 221.677 307.583V309.22H224.615C225.373 309.22 225.707 309.554 225.707 310.31V313.916C225.707 314.674 225.373 315.008 224.615 315.008H217.555C217.04 315.008 216.737 315.371 216.737 315.917C216.737 316.462 217.04 316.826 217.555 316.887L222.071 317.493C224.919 317.917 226.798 319.13 226.798 322.524V325.705C226.798 328.797 224.888 330.646 221.677 330.978V332.675C221.677 333.432 221.343 333.766 220.585 333.766H216.191Z" fill="white"/>
<path d="M338.139 211.378C336.044 204.982 339.543 198.074 345.94 195.98C352.335 193.885 359.242 197.385 361.337 203.78C363.431 210.175 359.933 217.082 353.536 219.177C347.141 221.272 340.234 217.773 338.139 211.378ZM370.05 210.08L374.623 210.645C374.963 207.904 374.845 205.14 374.275 202.433L369.77 203.381C369.618 202.655 369.428 201.929 369.192 201.208C368.596 199.388 367.763 197.714 366.747 196.196L370.578 193.635C369.044 191.341 367.15 189.327 364.95 187.649L362.154 191.317C360.07 189.731 357.698 188.553 355.173 187.853L356.401 183.408C353.735 182.672 350.984 182.382 348.229 182.55L348.509 187.145C346.797 187.248 345.07 187.568 343.366 188.125L341.935 183.753C339.305 184.616 336.857 185.892 334.659 187.545L337.431 191.228C335.314 192.824 333.553 194.801 332.215 197.028L328.26 194.649C326.838 197.011 325.821 199.574 325.235 202.264L329.742 203.244C329.192 205.763 329.109 208.408 329.566 211.05L325.03 211.835C325.237 213.031 325.534 214.223 325.913 215.382C326.387 216.83 326.994 218.238 327.718 219.568L331.765 217.368C333.044 219.718 334.747 221.743 336.744 223.381L333.816 226.946C335.945 228.694 338.332 230.072 340.911 231.044L342.537 226.727C344.965 227.642 347.573 228.103 350.229 228.041L350.341 232.646C352.782 232.586 355.205 232.169 357.541 231.403C357.825 231.31 358.112 231.211 358.392 231.108L356.805 226.785C359.339 225.853 361.585 224.464 363.479 222.743L366.577 226.157C368.618 224.307 370.33 222.143 371.669 219.726L367.632 217.491C368.894 215.211 369.724 212.696 370.05 210.08Z" fill="white"/>
<path d="M555.056 269.3C553.568 264.757 556.054 259.85 560.597 258.362C565.14 256.874 570.047 259.36 571.535 263.903C573.023 268.446 570.537 273.353 565.994 274.841C561.451 276.329 556.544 273.843 555.056 269.3ZM577.723 268.378L580.972 268.78C581.214 266.832 581.131 264.869 580.726 262.947L577.525 263.62C577.417 263.104 577.281 262.589 577.114 262.076C576.691 260.783 576.099 259.593 575.378 258.516L578.099 256.696C577.01 255.067 575.664 253.636 574.101 252.444L572.115 255.049C570.635 253.923 568.95 253.086 567.156 252.589L568.028 249.432C566.134 248.908 564.181 248.704 562.223 248.823L562.421 252.086C561.206 252.16 559.98 252.387 558.77 252.783L557.753 249.677C555.884 250.289 554.144 251.196 552.584 252.37L554.553 254.986C553.049 256.12 551.798 257.525 550.847 259.106L548.038 257.416C547.028 259.095 546.305 260.915 545.889 262.826L549.091 263.523C548.7 265.312 548.642 267.19 548.965 269.068L545.744 269.625C545.89 270.475 546.102 271.321 546.371 272.144C546.708 273.173 547.139 274.173 547.652 275.118L550.528 273.556C551.436 275.224 552.646 276.664 554.064 277.827L551.985 280.359C553.497 281.601 555.193 282.58 557.025 283.27L558.179 280.203C559.905 280.854 561.757 281.182 563.644 281.137L563.723 284.408C565.458 284.366 567.179 284.069 568.838 283.526C569.04 283.46 569.243 283.388 569.443 283.316L568.315 280.245C570.115 279.583 571.71 278.597 573.056 277.373L575.258 279.799C576.706 278.485 577.923 276.947 578.874 275.231L576.007 273.644C576.903 272.024 577.492 270.236 577.723 268.378Z" fill="white"/>
<path d="M548.969 295.624C548.216 293.325 549.474 290.841 551.774 290.087C554.074 289.334 556.558 290.592 557.311 292.893C558.065 295.193 556.807 297.676 554.506 298.429C552.207 299.183 549.723 297.925 548.969 295.624ZM560.444 295.158L562.088 295.361C562.212 294.375 562.168 293.382 561.964 292.408L560.344 292.75C560.289 292.488 560.221 292.227 560.136 291.968C559.921 291.314 559.621 290.711 559.257 290.166L560.635 289.244C560.082 288.419 559.402 287.695 558.611 287.092L557.605 288.411C556.856 287.84 556.003 287.417 555.095 287.166L555.537 285.567C554.577 285.302 553.588 285.198 552.598 285.259L552.698 286.91C552.082 286.947 551.463 287.063 550.849 287.263L550.335 285.692C549.388 286.001 548.508 286.46 547.718 287.054L548.715 288.379C547.953 288.953 547.32 289.664 546.838 290.464L545.416 289.608C544.906 290.458 544.54 291.38 544.33 292.347L545.95 292.7C545.752 293.605 545.722 294.556 545.886 295.506L544.256 295.789C544.33 296.218 544.436 296.648 544.573 297.064C544.743 297.584 544.962 298.091 545.222 298.57L546.677 297.779C547.137 298.623 547.749 299.352 548.467 299.941L547.415 301.223C548.18 301.852 549.039 302.347 549.966 302.696L550.551 301.143C551.423 301.473 552.361 301.639 553.316 301.617L553.357 303.273C554.235 303.251 555.107 303.101 555.946 302.826C556.049 302.793 556.151 302.757 556.252 302.719L555.682 301.165C556.593 300.83 557.401 300.331 558.081 299.711L559.196 300.939C559.929 300.274 560.546 299.495 561.026 298.627L559.574 297.823C560.029 297.003 560.327 296.099 560.444 295.158Z" fill="white"/>
<path d="M588.681 360.905C587.928 358.606 589.186 356.121 591.485 355.369C593.786 354.616 596.269 355.874 597.022 358.173C597.775 360.474 596.517 362.957 594.218 363.71C591.918 364.463 589.434 363.205 588.681 360.905ZM600.156 360.44L601.8 360.643C601.922 359.656 601.88 358.664 601.676 357.69L600.056 358.031C600.001 357.769 599.932 357.508 599.847 357.249C599.633 356.595 599.333 355.992 598.967 355.447L600.345 354.526C599.794 353.7 599.114 352.976 598.321 352.373L597.317 353.693C596.567 353.121 595.715 352.699 594.806 352.447L595.247 350.849C594.289 350.583 593.3 350.479 592.309 350.54L592.41 352.192C591.794 352.229 591.173 352.344 590.561 352.545L590.045 350.973C589.1 351.283 588.22 351.741 587.429 352.335L588.425 353.66C587.665 354.234 587.031 354.944 586.55 355.746L585.128 354.89C584.618 355.739 584.251 356.661 584.041 357.629L585.661 357.982C585.463 358.887 585.434 359.838 585.598 360.787L583.966 361.071C584.041 361.5 584.148 361.929 584.285 362.346C584.455 362.866 584.674 363.373 584.934 363.851L586.389 363.06C586.848 363.905 587.46 364.634 588.179 365.222L587.127 366.505C587.892 367.132 588.75 367.629 589.677 367.978L590.263 366.425C591.135 366.755 592.073 366.92 593.028 366.899L593.069 368.554C593.946 368.532 594.817 368.383 595.657 368.107C595.76 368.074 595.863 368.037 595.963 368.001L595.392 366.446C596.304 366.112 597.111 365.612 597.793 364.993L598.907 366.221C599.64 365.555 600.256 364.777 600.737 363.908L599.286 363.105C599.741 362.285 600.038 361.379 600.156 360.44Z" fill="white"/>
<path d="M408.079 407.605L415.34 406.487" stroke="#00B6FF" stroke-width="3.85765" stroke-linecap="round" stroke-linejoin="round"/>
<path d="M430.035 404.221L687.207 364.584" stroke="#00B6FF" stroke-width="4" stroke-linecap="round" stroke-linejoin="round" stroke-dasharray="15.61 15.61"/>
<path d="M694.555 363.453L701.816 362.333" stroke="#00B6FF" stroke-width="3.85765" stroke-linecap="round" stroke-linejoin="round"/>
<path d="M658.166 361.764C658.166 384.66 676.726 403.22 699.622 403.22C722.517 403.22 741.077 384.66 741.077 361.764C741.077 338.869 722.517 320.309 699.622 320.309C676.726 320.309 658.166 338.869 658.166 361.764Z" fill="white"/>
<path d="M658.166 361.764C658.166 384.66 676.726 403.22 699.622 403.22C722.517 403.22 741.077 384.66 741.077 361.764C741.077 338.869 722.517 320.309 699.622 320.309C676.726 320.309 658.166 338.869 658.166 361.764Z" stroke="#00B6FF" stroke-width="9.00117" stroke-miterlimit="10"/>
<path d="M725.417 374.55C725.417 375.668 724.51 376.573 723.393 376.573H677.077C675.959 376.573 675.053 375.668 675.053 374.55V346.221C675.053 345.104 675.959 344.197 677.077 344.197H723.393C724.51 344.197 725.417 345.104 725.417 346.221V374.55Z" fill="#4CC3C5"/>
<path d="M725.417 346.219C725.416 345.172 724.616 344.32 723.595 344.217L699.785 362.507L676.211 344.399C675.528 344.724 675.053 345.414 675.053 346.221V346.911L699.785 365.908L725.417 346.219Z" fill="white"/>
<path d="M742.651 235.101L736.076 238.378" stroke="#00B6FF" stroke-width="3.85765" stroke-linecap="round" stroke-linejoin="round"/>
<path d="M722.759 245.013L409.848 400.924" stroke="#00B6FF" stroke-width="4" stroke-linecap="round" stroke-linejoin="round" stroke-dasharray="15.62 15.62"/>
<path d="M403.189 404.241L396.614 407.518" stroke="#00B6FF" stroke-width="3.85765" stroke-linecap="round" stroke-linejoin="round"/>
<path d="M675.916 235.102C675.916 271.959 705.794 301.837 742.651 301.837C779.507 301.837 809.385 271.959 809.385 235.102C809.385 198.246 779.507 168.368 742.651 168.368C705.794 168.368 675.916 198.246 675.916 235.102Z" fill="white"/>
<path d="M675.916 235.102C675.916 271.959 705.794 301.837 742.651 301.837C779.507 301.837 809.385 271.959 809.385 235.102C809.385 198.246 779.507 168.368 742.651 168.368C705.794 168.368 675.916 198.246 675.916 235.102Z" stroke="#00B6FF" stroke-width="9.00117" stroke-miterlimit="10"/>
<path d="M783.369 196.327H735.186C730.963 196.327 727.539 199.721 727.539 203.907V218.922C727.539 223.11 730.963 226.503 735.186 226.503H770.215L782.604 237.873V226.503H783.369C787.593 226.503 791.017 223.11 791.017 218.922V203.907C791.017 199.721 787.593 196.327 783.369 196.327Z" fill="#F1454D"/>
<path d="M783.369 196.327H735.186C730.963 196.327 727.539 199.721 727.539 203.907V218.922C727.539 223.11 730.963 226.503 735.186 226.503H770.215L782.604 237.873V226.503H783.369C787.593 226.503 791.017 223.11 791.017 218.922V203.907C791.017 199.721 787.593 196.327 783.369 196.327Z" stroke="#F1454D" stroke-width="0.891235" stroke-miterlimit="10" stroke-linecap="round" stroke-linejoin="round"/>
<path d="M749.586 211.338C749.586 213.018 748.214 214.38 746.518 214.38C744.823 214.38 743.45 213.018 743.45 211.338C743.45 209.658 744.823 208.297 746.518 208.297C748.214 208.297 749.586 209.658 749.586 211.338Z" fill="white"/>
<path d="M762.347 211.338C762.347 213.018 760.972 214.38 759.278 214.38C757.583 214.38 756.209 213.018 756.209 211.338C756.209 209.658 757.583 208.297 759.278 208.297C760.972 208.297 762.347 209.658 762.347 211.338Z" fill="white"/>
<path d="M775.105 211.338C775.105 213.018 773.732 214.38 772.037 214.38C770.342 214.38 768.968 213.018 768.968 211.338C768.968 209.658 770.342 208.297 772.037 208.297C773.732 208.297 775.105 209.658 775.105 211.338Z" fill="white"/>
<path d="M771.71 251.558H733.807C730.484 251.558 727.791 254.227 727.791 257.52V269.332C727.791 272.625 730.484 275.295 733.807 275.295H761.362L771.108 284.239V275.295H771.71C775.033 275.295 777.726 272.625 777.726 269.332V257.52C777.726 254.227 775.033 251.558 771.71 251.558Z" fill="#FFC4C6"/>
<path d="M771.71 251.558H733.807C730.484 251.558 727.791 254.227 727.791 257.52V269.332C727.791 272.625 730.484 275.295 733.807 275.295H761.362L771.108 284.239V275.295H771.71C775.033 275.295 777.726 272.625 777.726 269.332V257.52C777.726 254.227 775.033 251.558 771.71 251.558Z" stroke="#FFC4C6" stroke-width="0.701089" stroke-miterlimit="10" stroke-linecap="round" stroke-linejoin="round"/>
<path d="M743.068 262.137C743.068 263.816 741.694 265.179 740 265.179C738.305 265.179 736.932 263.816 736.932 262.137C736.932 260.457 738.305 259.096 740 259.096C741.694 259.096 743.068 260.457 743.068 262.137Z" fill="white"/>
<path d="M755.827 262.137C755.827 263.816 754.453 265.179 752.759 265.179C751.064 265.179 749.69 263.816 749.69 262.137C749.69 260.457 751.064 259.096 752.759 259.096C754.453 259.096 755.827 260.457 755.827 262.137Z" fill="white"/>
<path d="M768.586 262.137C768.586 263.816 767.212 265.179 765.518 265.179C763.823 265.179 762.449 263.816 762.449 262.137C762.449 260.457 763.823 259.096 765.518 259.096C767.212 259.096 768.586 260.457 768.586 262.137Z" fill="white"/>
<path d="M699.008 218.207H747.191C751.414 218.207 754.838 221.601 754.838 225.788V240.804C754.838 244.99 751.414 248.384 747.191 248.384H712.162L699.772 259.753V248.384H699.008C694.784 248.384 691.359 244.99 691.359 240.804V225.788C691.359 221.601 694.784 218.207 699.008 218.207Z" fill="#4CC3C5"/>
<path d="M699.008 218.207H747.191C751.414 218.207 754.838 221.601 754.838 225.788V240.804C754.838 244.99 751.414 248.384 747.191 248.384H712.162L699.772 259.753V248.384H699.008C694.784 248.384 691.359 244.99 691.359 240.804V225.788C691.359 221.601 694.784 218.207 699.008 218.207Z" stroke="#4CC3C5" stroke-width="0.891235" stroke-miterlimit="10" stroke-linecap="round" stroke-linejoin="round"/>
<path d="M732.789 233.22C732.789 234.9 734.162 236.261 735.857 236.261C737.552 236.261 738.926 234.9 738.926 233.22C738.926 231.54 737.552 230.178 735.857 230.178C734.162 230.178 732.789 231.54 732.789 233.22Z" fill="white"/>
<path d="M720.029 233.22C720.029 234.9 721.403 236.261 723.098 236.261C724.793 236.261 726.167 234.9 726.167 233.22C726.167 231.54 724.793 230.178 723.098 230.178C721.403 230.178 720.029 231.54 720.029 233.22Z" fill="white"/>
<path d="M707.271 233.22C707.271 234.9 708.644 236.261 710.339 236.261C712.034 236.261 713.408 234.9 713.408 233.22C713.408 231.54 712.034 230.178 710.339 230.178C708.644 230.178 707.271 231.54 707.271 233.22Z" fill="white"/>
<path d="M394.664 405.47L398.983 399.527" stroke="#00B6FF" stroke-width="3.85765" stroke-linecap="round" stroke-linejoin="round"/>
<path d="M407.487 387.825L607.345 112.816" stroke="#00B6FF" stroke-width="4" stroke-linecap="round" stroke-linejoin="round" stroke-dasharray="15.19 15.19"/>
<path d="M611.597 106.964L615.917 101.021" stroke="#00B6FF" stroke-width="3.85765" stroke-linecap="round" stroke-linejoin="round"/>
<path d="M547.958 101.02C547.958 138.553 578.384 168.979 615.917 168.979C653.449 168.979 683.876 138.553 683.876 101.02C683.876 63.4876 653.449 33.0624 615.917 33.0624C578.384 33.0624 547.958 63.4876 547.958 101.02Z" fill="white"/>
<path d="M547.958 101.02C547.958 138.553 578.384 168.979 615.917 168.979C653.449 168.979 683.876 138.553 683.876 101.02C683.876 63.4876 653.449 33.0624 615.917 33.0624C578.384 33.0624 547.958 63.4876 547.958 101.02Z" stroke="#00B6FF" stroke-width="9.00117" stroke-miterlimit="10"/>
<path d="M652.485 118.909H612.125V67.7856H652.485V118.909Z" fill="#FFC4C6"/>
<path d="M606.074 82.9719V120.642" stroke="#4CC3C5" stroke-width="2.65321" stroke-miterlimit="10" stroke-linecap="round" stroke-linejoin="round"/>
<path d="M619.729 82.9719V120.642" stroke="#4CC3C5" stroke-width="2.65321" stroke-miterlimit="10" stroke-linecap="round" stroke-linejoin="round"/>
<path d="M633.385 85.3272V120.642" stroke="#4CC3C5" stroke-width="2.65321" stroke-miterlimit="10" stroke-linecap="round" stroke-linejoin="round"/>
<path d="M647.04 87.2101V120.642" stroke="#4CC3C5" stroke-width="2.65321" stroke-miterlimit="10" stroke-linecap="round" stroke-linejoin="round"/>
<path d="M597.363 96.1196H658.34" stroke="#4CC3C5" stroke-width="2.65321" stroke-miterlimit="10" stroke-linecap="round" stroke-linejoin="round"/>
<path d="M600.659 108.598H658.34" stroke="#4CC3C5" stroke-width="2.65321" stroke-miterlimit="10" stroke-linecap="round" stroke-linejoin="round"/>
<path d="M570.928 70.3121H585.42L605.632 120.001H658.689V87.9974L589.63 78.7339" stroke="#4CC3C5" stroke-width="3.53761" stroke-miterlimit="10" stroke-linecap="round" stroke-linejoin="round"/>
<path d="M605.368 120.642L598.052 133.476H651.111" stroke="#4CC3C5" stroke-width="3.53761" stroke-miterlimit="10" stroke-linecap="round" stroke-linejoin="round"/>
<path d="M583.237 67.7853H570.928C569.534 67.7853 568.401 68.9166 568.401 70.312C568.401 71.7073 569.534 72.8386 570.928 72.8386H583.237V67.7853Z" fill="#F1454D"/>
<path d="M598.776 139.712C598.776 142.442 600.989 144.655 603.72 144.655C606.45 144.655 608.664 142.442 608.664 139.712C608.664 136.981 606.45 134.767 603.72 134.767C600.989 134.767 598.776 136.981 598.776 139.712Z" fill="#2A3070"/>
<path d="M601.659 139.712C601.659 140.85 602.582 141.772 603.72 141.772C604.857 141.772 605.779 140.85 605.779 139.712C605.779 138.573 604.857 137.652 603.72 137.652C602.582 137.652 601.659 138.573 601.659 139.712Z" fill="#9394D2"/>
<path d="M640.448 139.712C640.448 142.442 642.661 144.655 645.392 144.655C648.122 144.655 650.336 142.442 650.336 139.712C650.336 136.981 648.122 134.767 645.392 134.767C642.661 134.767 640.448 136.981 640.448 139.712Z" fill="#2A3070"/>
<path d="M643.331 139.712C643.331 140.85 644.254 141.772 645.392 141.772C646.529 141.772 647.451 140.85 647.451 139.712C647.451 138.573 646.529 137.652 645.392 137.652C644.254 137.652 643.331 138.573 643.331 139.712Z" fill="#9394D2"/>
<path d="M435.086 140.667L433.906 147.919" stroke="#00B6FF" stroke-width="3.85765" stroke-linecap="round" stroke-linejoin="round"/>
<path d="M431.616 161.998L396.106 380.204" stroke="#00B6FF" stroke-width="4" stroke-linecap="round" stroke-linejoin="round" stroke-dasharray="14.98 14.98"/>
<path d="M394.959 387.244L393.78 394.496" stroke="#00B6FF" stroke-width="3.85765" stroke-linecap="round" stroke-linejoin="round"/>
<path d="M386.764 132.857C386.764 160.247 408.966 182.449 436.356 182.449C463.744 182.449 485.947 160.247 485.947 132.857C485.947 105.469 463.744 83.2653 436.356 83.2653C408.966 83.2653 386.764 105.469 386.764 132.857Z" fill="white"/>
<path d="M386.764 132.857C386.764 160.247 408.966 182.449 436.356 182.449C463.744 182.449 485.947 160.247 485.947 132.857C485.947 105.469 463.744 83.2652 436.356 83.2652C408.966 83.2652 386.764 105.469 386.764 132.857Z" stroke="#00B6FF" stroke-width="9.00117" stroke-miterlimit="10"/>
<path d="M459.075 123.461C459.075 110.761 448.78 100.466 436.079 100.466C423.38 100.466 413.084 110.761 413.084 123.461C413.084 132.713 418.551 140.682 426.427 144.331V155.54C426.427 160.871 430.749 165.192 436.079 165.192C441.41 165.192 445.732 160.871 445.732 155.54V144.331C453.608 140.682 459.075 132.713 459.075 123.461Z" fill="#FFC4C6"/>
<path d="M431.253 150.431V128.287H440.906V150.431" stroke="white" stroke-width="0.894376" stroke-miterlimit="10" stroke-linecap="round" stroke-linejoin="round"/>
<path d="M425.633 149.862V159.146C425.633 164.838 430.247 169.451 435.938 169.451C441.629 169.451 446.243 164.838 446.243 159.146V149.862H425.633Z" fill="#2A3070"/>
<path d="M425.292 153.269H446.868" stroke="#00B6FF" stroke-width="2.68313" stroke-miterlimit="10" stroke-linecap="round" stroke-linejoin="round"/>
<path d="M425.292 158.095H446.868" stroke="#00B6FF" stroke-width="2.68313" stroke-miterlimit="10" stroke-linecap="round" stroke-linejoin="round"/>
<path d="M380.189 390.975L376.531 384.604" stroke="#00B6FF" stroke-width="3.85765" stroke-linecap="round" stroke-linejoin="round"/>
<path d="M369.37 372.125L215.4 103.836" stroke="#00B6FF" stroke-width="4" stroke-linecap="round" stroke-linejoin="round" stroke-dasharray="15.11 15.11"/>
<path d="M211.819 97.5974L208.163 91.2249" stroke="#00B6FF" stroke-width="3.85765" stroke-linecap="round" stroke-linejoin="round"/>
<path d="M140.204 91.2249C140.204 128.758 170.63 159.184 208.163 159.184C245.696 159.184 276.122 128.758 276.122 91.2249C276.122 53.6921 245.696 23.2657 208.163 23.2657C170.63 23.2657 140.204 53.6921 140.204 91.2249Z" fill="white"/>
<path d="M140.204 91.2249C140.204 128.758 170.63 159.184 208.163 159.184C245.696 159.184 276.122 128.758 276.122 91.2249C276.122 53.6921 245.696 23.2657 208.163 23.2657C170.63 23.2657 140.204 53.6921 140.204 91.2249Z" stroke="#00B6FF" stroke-width="9.00117" stroke-miterlimit="10"/>
<path d="M207.421 42.6892C180.744 43.0866 159.237 64.8234 159.237 91.5957C159.237 118.368 180.744 140.104 207.421 140.502V42.6892Z" fill="#F1454D"/>
<path d="M207.421 42.6892C180.744 43.0866 159.237 64.8234 159.237 91.5957C159.237 118.368 180.744 140.104 207.421 140.502V42.6892Z" stroke="#F1454D" stroke-width="1.28588" stroke-miterlimit="10"/>
<path d="M207.412 141.114C207.078 141.109 206.809 140.837 206.809 140.502V42.6891C206.809 42.3539 207.078 42.0809 207.413 42.0771C207.413 42.0771 208.017 42.058 208.163 42.058C235.478 42.058 257.7 64.2798 257.7 91.5956C257.7 118.91 235.478 141.133 208.163 141.133C208.013 141.133 207.412 141.114 207.412 141.114Z" fill="#FFC4C6"/>
<path d="M208.163 41.4461C208.007 41.4461 207.853 41.4512 207.698 41.4563L207.403 41.4652C206.734 41.4741 206.197 42.02 206.197 42.6891V140.502C206.197 141.171 206.734 141.717 207.403 141.726L207.699 141.735C207.853 141.74 208.007 141.745 208.163 141.745C235.815 141.745 258.312 119.248 258.312 91.5956C258.312 63.9435 235.815 41.4461 208.163 41.4461ZM208.163 42.6701C235.184 42.6701 257.088 64.5745 257.088 91.5956C257.088 118.617 235.184 140.521 208.163 140.521C207.914 140.521 207.669 140.506 207.421 140.502V42.6891C207.669 42.6853 207.914 42.6701 208.163 42.6701Z" fill="white"/>
<path d="M207.421 91.9028C207.3 91.9028 207.182 91.8673 207.08 91.7987C206.911 91.6844 206.809 91.494 206.809 91.2908V41.9476C206.809 41.6137 207.078 41.3407 207.412 41.3356C207.412 41.3356 208.013 41.3166 208.163 41.3166C228.49 41.3166 246.531 53.5092 254.125 72.3765C254.25 72.6902 254.099 73.0457 253.787 73.1726L207.651 91.8584C207.577 91.8889 207.499 91.9028 207.421 91.9028Z" fill="#00B6FF"/>
<path d="M208.163 40.7047C208.007 40.7047 207.852 40.7098 207.698 40.7148L207.403 40.7237C206.734 40.7339 206.197 41.2786 206.197 41.9477V91.2909C206.197 91.6985 206.399 92.0781 206.737 92.3066C206.943 92.445 207.181 92.5149 207.421 92.5149C207.577 92.5149 207.732 92.4857 207.881 92.426L254.016 73.7402C254.642 73.4863 254.945 72.774 254.692 72.1481C247.006 53.0471 228.742 40.7047 208.163 40.7047ZM208.163 41.9286C228.73 41.9286 246.321 54.6266 253.556 72.6052L207.421 91.2909V41.9477C207.669 41.9439 207.914 41.9286 208.163 41.9286Z" fill="white"/>
<path d="M207.421 91.9028C207.335 91.9028 207.247 91.8851 207.166 91.847C206.949 91.7467 206.809 91.5308 206.809 91.2908V42.6891C206.809 42.3539 207.078 42.0822 207.412 42.0771C207.412 42.0771 208.013 42.0581 208.163 42.0581C222.363 42.0581 235.905 48.1779 245.317 58.8482C245.426 58.9713 245.481 59.1326 245.468 59.2964C245.458 59.4602 245.38 59.6113 245.256 59.7179L207.82 91.7556C207.707 91.8521 207.565 91.9028 207.421 91.9028Z" fill="#4CC3C5"/>
<path d="M208.163 41.4462C208.007 41.4462 207.853 41.4512 207.698 41.4563L207.403 41.4652C206.734 41.4741 206.197 42.02 206.197 42.6891V91.2909C206.197 91.7683 206.475 92.2038 206.91 92.4031C207.073 92.4781 207.247 92.5149 207.421 92.5149C207.708 92.5149 207.991 92.4146 208.217 92.2216L245.655 60.184C245.904 59.9707 246.057 59.6659 246.08 59.3396C246.103 59.0121 245.994 58.6896 245.777 58.4432C236.248 47.6409 222.539 41.4462 208.163 41.4462ZM208.163 42.6701C222.782 42.6701 235.892 49.0896 244.859 59.2533L207.421 91.2909V42.6891C207.669 42.6853 207.914 42.6701 208.163 42.6701Z" fill="white"/>
<path d="M125.51 52.0416L182.448 87.5518" stroke="#2A3070" stroke-width="1.28588" stroke-miterlimit="10"/>
<path d="M181.224 89.6937C181.224 92.2305 183.28 94.2861 185.817 94.2861C188.352 94.2861 190.408 92.2305 190.408 89.6937C190.408 87.1582 188.352 85.1026 185.817 85.1026C183.28 85.1026 181.224 87.1582 181.224 89.6937Z" fill="white"/>
<path d="M181.224 89.6937C181.224 92.2305 183.28 94.2861 185.817 94.2861C188.352 94.2861 190.408 92.2305 190.408 89.6937C190.408 87.1582 188.352 85.1026 185.817 85.1026C183.28 85.1026 181.224 87.1582 181.224 89.6937Z" stroke="#2A3070" stroke-width="1.28588" stroke-miterlimit="10"/>
<path d="M132.627 53.8776C132.627 55.9065 130.982 57.552 128.954 57.552H61.6068C59.5782 57.552 57.9331 55.9065 57.9331 53.8776V30.6134C57.9331 28.5845 59.5782 26.939 61.6068 26.939H128.954C130.982 26.939 132.627 28.5845 132.627 30.6134V53.8776Z" fill="#2A3070"/>
<path d="M65.5864 34.2864H124.974" stroke="white" stroke-width="1.28588" stroke-miterlimit="10" stroke-linecap="round" stroke-linejoin="round"/>
<path d="M65.5864 41.9387H124.974" stroke="white" stroke-width="1.28588" stroke-miterlimit="10" stroke-linecap="round" stroke-linejoin="round"/>
<path d="M75.3823 49.5923H115.178" stroke="white" stroke-width="1.28588" stroke-miterlimit="10" stroke-linecap="round" stroke-linejoin="round"/>
<path d="M298.237 103.122L231.134 102.907" stroke="#2A3070" stroke-width="1.28588" stroke-miterlimit="10"/>
<path d="M231.046 100.44C229.712 98.2843 226.881 97.619 224.724 98.9534C222.568 100.289 221.903 103.119 223.239 105.275C224.573 107.431 227.403 108.096 229.559 106.762C231.715 105.426 232.382 102.596 231.046 100.44Z" fill="white"/>
<path d="M231.046 100.44C229.712 98.2843 226.881 97.619 224.724 98.9534C222.568 100.289 221.903 103.119 223.239 105.275C224.573 107.431 227.403 108.096 229.559 106.762C231.715 105.426 232.382 102.596 231.046 100.44Z" stroke="#2A3070" stroke-width="1.28588" stroke-miterlimit="10"/>
<path d="M361.988 114.49C361.988 116.519 360.344 118.164 358.315 118.164H290.968C288.939 118.164 287.295 116.519 287.295 114.49V91.2249C287.295 89.196 288.939 87.5518 290.968 87.5518H358.315C360.344 87.5518 361.988 89.196 361.988 91.2249V114.49Z" fill="#2A3070"/>
<path d="M294.949 94.8982H354.336" stroke="white" stroke-width="1.28588" stroke-miterlimit="10" stroke-linecap="round" stroke-linejoin="round"/>
<path d="M294.949 102.552H354.336" stroke="white" stroke-width="1.28588" stroke-miterlimit="10" stroke-linecap="round" stroke-linejoin="round"/>
<path d="M304.744 110.204H344.539" stroke="white" stroke-width="1.28588" stroke-miterlimit="10" stroke-linecap="round" stroke-linejoin="round"/>
<path d="M274.404 19.2625L223.461 62.9404" stroke="#2A3070" stroke-width="1.28588" stroke-miterlimit="10"/>
<path d="M221.784 61.1298C219.364 60.3693 216.786 61.7151 216.027 64.1338C215.266 66.5538 216.612 69.1312 219.031 69.8918C221.451 70.651 224.028 69.3065 224.788 66.8865C225.548 64.4677 224.204 61.8903 221.784 61.1298Z" fill="white"/>
<path d="M221.784 61.1298C219.364 60.3693 216.786 61.7151 216.027 64.1338C215.266 66.5538 216.612 69.1312 219.031 69.8918C221.451 70.651 224.028 69.3065 224.788 66.8865C225.548 64.4677 224.204 61.8903 221.784 61.1298Z" stroke="#2A3070" stroke-width="1.28588" stroke-miterlimit="10"/>
<path d="M312.244 26.9389C312.244 28.9678 310.6 30.6133 308.571 30.6133H265.867C263.838 30.6133 262.193 28.9678 262.193 26.9389V3.67467C262.193 1.64573 263.838 0.00021553 265.867 0.00021553H308.571C310.6 0.00021553 312.244 1.64573 312.244 3.67467V26.9389Z" fill="#2A3070"/>
<path d="M269.846 7.3479H304.59" stroke="white" stroke-width="1.28588" stroke-miterlimit="10" stroke-linecap="round" stroke-linejoin="round"/>
<path d="M269.846 15H304.59" stroke="white" stroke-width="1.28588" stroke-miterlimit="10" stroke-linecap="round" stroke-linejoin="round"/>
<path d="M279.642 22.6538H294.795" stroke="white" stroke-width="1.28588" stroke-miterlimit="10" stroke-linecap="round" stroke-linejoin="round"/>
<path d="M53.8774 157.347L59.7567 161.754" stroke="#00B6FF" stroke-width="3.85765" stroke-linecap="round" stroke-linejoin="round"/>
<path d="M71.2461 170.366L364.228 389.969" stroke="#00B6FF" stroke-width="4" stroke-linecap="round" stroke-linejoin="round" stroke-dasharray="15.08 15.08"/>
<path d="M369.974 394.275L375.852 398.682" stroke="#00B6FF" stroke-width="3.85765" stroke-linecap="round" stroke-linejoin="round"/>
<path d="M4.28564 157.347C4.28564 184.736 26.4885 206.939 53.8773 206.939C81.266 206.939 103.469 184.736 103.469 157.347C103.469 129.959 81.266 107.756 53.8773 107.756C26.4885 107.756 4.28564 129.959 4.28564 157.347Z" fill="white"/>
<path d="M53.8773 112.041C28.8954 112.041 8.57177 132.366 8.57177 157.347C8.57177 182.329 28.8954 202.654 53.8773 202.654C78.8591 202.654 99.1832 182.329 99.1832 157.347C99.1832 132.366 78.8591 112.041 53.8773 112.041ZM53.8773 211.224C24.1688 211.224 0 187.056 0 157.347C0 127.639 24.1688 103.47 53.8773 103.47C83.5855 103.47 107.755 127.639 107.755 157.347C107.755 187.056 83.5855 211.224 53.8773 211.224Z" fill="#00B6FF"/>
<path d="M79.1593 134.695H30.5259C26.2626 134.695 22.8062 138.151 22.8062 142.414V168.661C22.8062 172.923 26.2626 176.381 30.5259 176.381H65.8818L78.3876 187.96V176.381H79.1593C83.4226 176.381 86.879 172.923 86.879 168.661V142.414C86.879 138.151 83.4226 134.695 79.1593 134.695Z" fill="#F1454D"/>
<path d="M79.1593 134.695H30.5259C26.2626 134.695 22.8062 138.151 22.8062 142.414V168.661C22.8062 172.923 26.2626 176.381 30.5259 176.381H65.8818L78.3876 187.96V176.381H79.1593C83.4226 176.381 86.879 172.923 86.879 168.661V142.414C86.879 138.151 83.4226 134.695 79.1593 134.695Z" stroke="#F1454D" stroke-width="0.832449" stroke-miterlimit="10"/>
<path d="M44.8403 142.829L64.8446 154.38L44.8403 165.928V142.829Z" fill="white"/>
<path d="M44.8403 142.829L64.8446 154.38L44.8403 165.928V142.829Z" stroke="white" stroke-width="2.29172" stroke-miterlimit="10" stroke-linecap="round" stroke-linejoin="round"/>
<path d="M96.7349 320.204L103.794 322.239" stroke="#00B6FF" stroke-width="3.85765" stroke-miterlimit="10"/>
<path d="M117.378 326.156L382.27 402.536" stroke="#00B6FF" stroke-width="4" stroke-miterlimit="10" stroke-dasharray="14.85 14.85"/>
<path d="M389.062 404.495L396.121 406.53" stroke="#00B6FF" stroke-width="3.85765" stroke-miterlimit="10"/>
<path d="M31.2246 318.98C31.2246 356.513 61.6506 386.938 99.1833 386.938C136.716 386.938 167.142 356.513 167.142 318.98C167.142 281.447 136.716 251.021 99.1833 251.021C61.6506 251.021 31.2246 281.447 31.2246 318.98Z" fill="white"/>
<mask id="mask0_273_155662" style="mask-type:luminance" maskUnits="userSpaceOnUse" x="28" y="252" width="137" height="137">
<path d="M28.7754 320.204C28.7754 357.737 59.2018 388.163 96.7346 388.163C134.266 388.163 164.693 357.737 164.693 320.204C164.693 282.671 134.266 252.245 96.7346 252.245C59.2018 252.245 28.7754 282.671 28.7754 320.204Z" fill="white"/>
</mask>
<g mask="url(#mask0_273_155662)">
<path d="M116.933 337.701H107.49V314.069H86.0036V337.701H76.5609C65.6844 337.701 56.8677 346.519 56.8677 357.395V369.869H136.627V357.395C136.627 346.519 127.81 337.701 116.933 337.701Z" fill="#FD9095"/>
<path d="M86.0039 334C89.3284 335.325 92.9509 336.061 96.747 336.061C100.544 336.061 104.166 335.325 107.491 334V314.069H86.0039V334Z" fill="#FF8489"/>
<path d="M116.933 337.701H112.485C112.488 337.812 112.502 337.919 112.502 338.03C112.502 347.093 105.154 354.441 96.0905 354.441C87.0268 354.441 79.6791 347.093 79.6791 338.03C79.6791 337.919 79.6935 337.812 79.6959 337.701H76.5609C65.6844 337.701 56.8677 346.519 56.8677 357.395V402.04H136.627V357.395C136.627 346.519 127.81 337.701 116.933 337.701Z" fill="#4CC3C5"/>
<path d="M116.933 337.701H112.485C112.488 337.812 112.502 337.919 112.502 338.03C112.502 347.093 105.154 354.441 96.0905 354.441C87.0268 354.441 79.6791 347.093 79.6791 338.03C79.6791 337.919 79.6935 337.812 79.6959 337.701H76.5609C65.6844 337.701 56.8677 346.519 56.8677 357.395V402.04H136.627V357.395C136.627 346.519 127.81 337.701 116.933 337.701Z" stroke="#4CC3C5" stroke-width="1.28588" stroke-miterlimit="10"/>
<path d="M67.6992 300.775C67.6992 316.819 80.7045 329.824 96.7469 329.824C112.79 329.824 125.795 316.819 125.795 300.775C125.795 284.733 112.79 271.728 96.7469 271.728C80.7045 271.728 67.6992 284.733 67.6992 300.775Z" fill="#FD9095"/>
<path d="M129.734 300.775C129.734 282.558 114.965 267.789 96.7468 267.789C78.5291 267.789 63.7603 282.558 63.7603 300.775" stroke="#2A3070" stroke-width="4.13621" stroke-miterlimit="10"/>
<path d="M52.1079 300.775C52.1079 309.008 58.0704 315.681 65.4251 315.681C72.7793 315.681 71.2318 309.008 71.2318 300.775C71.2318 292.544 72.7793 285.871 65.4251 285.871C58.0704 285.871 52.1079 292.544 52.1079 300.775Z" fill="#2A3070"/>
<path d="M142.265 300.775C142.265 309.008 136.303 315.681 128.948 315.681C121.594 315.681 123.141 309.008 123.141 300.775C123.141 292.544 121.594 285.871 128.948 285.871C136.303 285.871 142.265 292.544 142.265 300.775Z" fill="#2A3070"/>
</g>
<path d="M28.7754 320.204C28.7754 357.737 59.2018 388.163 96.7346 388.163C134.266 388.163 164.693 357.737 164.693 320.204C164.693 282.671 134.266 252.245 96.7346 252.245C59.2018 252.245 28.7754 282.671 28.7754 320.204Z" stroke="#00B6FF" stroke-width="9.00117" stroke-miterlimit="10"/>
<path d="M564.826 321.599C565.104 319.311 565.264 316.988 565.264 314.625C565.264 283.063 539.679 257.478 508.117 257.478C500.174 257.478 492.61 259.102 485.736 262.031C471.36 225.701 435.927 200 394.484 200C355.54 200 321.895 222.693 306.05 255.576C298.62 251.329 290.023 248.89 280.851 248.89C252.756 248.89 229.98 271.665 229.98 299.76C229.98 312.545 234.707 324.217 242.494 333.154C213.326 334.214 190 358.173 190 387.6C190 399.735 193.968 410.943 200.674 420H337.768H527.828H614.519C617.936 411.532 619.821 402.282 619.821 392.591C619.821 358.429 596.449 329.731 564.826 321.599Z" fill="url(#paint0_linear_273_155662)"/>
</g>
<path d="M516.897 241.901V238H520.303L516.897 241.901Z" fill="#0E1924"/>
<path d="M470.44 295.12H469.575V293.587H471.778L470.44 295.12Z" fill="#E4F2F1"/>
<path d="M469.575 296.11V295.121H470.44L469.575 296.11Z" fill="#B7D8D7"/>
<path d="M455.965 375.101C455.965 376.471 475.41 377.579 499.398 377.579C523.386 377.579 542.831 376.471 542.831 375.101C542.831 373.734 523.386 372.623 499.398 372.623C475.41 372.623 455.965 373.734 455.965 375.101Z" fill="white" fill-opacity="0.6"/>
<path d="M542.831 255.85V368.5C542.831 372.155 539.871 375.101 536.23 375.101H462.566C458.925 375.101 455.965 372.155 455.965 368.5V255.85C455.965 252.209 458.925 249.25 462.566 249.25H536.23C539.871 249.25 542.831 252.209 542.831 255.85Z" fill="#121E2E"/>
<path d="M464.494 255.851H534.299C535.363 255.851 536.225 256.712 536.225 257.776V366.576C536.225 367.64 535.363 368.502 534.299 368.502H464.494C463.431 368.502 462.568 367.64 462.568 366.576V257.776C462.568 256.712 463.431 255.851 464.494 255.851Z" fill="white"/>
<path d="M468.35 321.036H530.442V306.37H468.35V321.036Z" fill="#92C0C3"/>
<path d="M468.35 304.837H487.95V285.237H468.35V304.837Z" fill="#92C0C3"/>
<path d="M489.595 304.837H509.196V285.237H489.595V304.837Z" fill="#92C0C3"/>
<path d="M530.442 285.237V304.837H510.842V285.237H530.442Z" fill="#92C0C3"/>
<path d="M468.35 283.703H487.95V264.103H468.35V283.703Z" fill="#EF4E3E"/>
<path d="M489.595 283.703H509.196V264.103H489.595V283.703Z" fill="#92C0C3"/>
<path d="M510.842 283.703H530.442V264.103H510.842V283.703Z" fill="#92C0C3"/>
<path d="M491.257 330.625C488.942 329.131 486.188 328.269 483.23 328.269C477.101 328.269 471.839 331.972 469.562 337.27L483.23 343.148L491.257 330.625Z" fill="#92C0C3"/>
<path d="M497.317 338.37L483.23 343.148L468.366 342.654C468.356 342.82 468.351 342.982 468.351 343.148C468.351 351.361 475.012 358.027 483.23 358.027C491.445 358.027 498.109 351.361 498.109 343.148C498.109 341.477 497.831 339.868 497.317 338.37Z" fill="#2A6794"/>
<path d="M497.317 338.37C496.233 335.147 494.068 332.422 491.256 330.625L483.23 343.148L497.317 338.37Z" fill="#EF4E3E"/>
<path d="M469.563 337.27C468.842 338.93 468.422 340.747 468.366 342.654L483.23 343.148L469.563 337.27Z" fill="#B9D4CF"/>
<path d="M504.151 358.027H530.442V353.494H504.151V358.027Z" fill="#B9D4CF"/>
<path d="M504.151 350.464H530.442V345.931H504.151V350.464Z" fill="#B9D4CF"/>
<path d="M542.831 279.976H536.225V257.777C536.225 256.713 535.363 255.851 534.299 255.851H527.557L533.32 249.25H536.23C539.871 249.25 542.831 252.209 542.831 255.85V279.976Z" fill="#0E1924"/>
<path d="M469.575 322.271V321.036H470.655L469.575 322.271ZM483.457 306.37H470.44L471.778 304.837H480.384C481.188 305.497 482.29 305.903 483.634 306.167L483.457 306.37Z" fill="#ECF7F4"/>
<path d="M277.743 400.118C277.743 401.485 320.526 402.595 373.3 402.595C426.076 402.595 468.857 401.485 468.857 400.118C468.857 398.748 426.076 397.64 373.3 397.64C320.526 397.64 277.743 398.748 277.743 400.118Z" fill="white" fill-opacity="0.6"/>
<path d="M469.231 396.731C468.47 398.71 466.554 400.118 464.305 400.118H283.244C280.995 400.118 279.072 398.71 278.312 396.731C277.966 395.82 278.646 394.847 279.619 394.847H467.924C468.899 394.847 469.576 395.82 469.231 396.731Z" fill="#4B5869"/>
<path d="M469.575 283.017V384.793C469.575 390.343 465.081 394.851 459.52 394.851H288.018C286.086 394.851 284.29 394.304 282.755 393.363C280.662 392.064 279.064 390.019 278.371 387.606C278.098 386.713 277.962 385.773 277.962 384.793V283.017C277.962 277.468 282.47 272.974 288.018 272.974H459.52C465.081 272.974 469.575 277.468 469.575 283.017Z" fill="#121E2E"/>
<path d="M288.018 381.863V285.953C288.018 284.334 289.332 283.022 290.95 283.022H456.593C458.213 283.022 459.524 284.334 459.524 285.953V381.863C459.524 383.483 458.213 384.794 456.593 384.794H290.95C289.332 384.794 288.018 383.483 288.018 381.863Z" fill="white"/>
<path d="M297.285 345.215H347.335V295.166H297.285V345.215Z" fill="#92C0C3"/>
<path d="M349.219 319.251H373.3V295.168H349.219V319.251Z" fill="#2A6794"/>
<path d="M375.186 319.251H399.267V295.168H375.186V319.251Z" fill="#92C0C3"/>
<path d="M450.26 300.926H403.771V295.167H450.26V300.926Z" fill="#EF4E3E"/>
<path d="M450.26 309.407H403.771V303.649H450.26V309.407Z" fill="#ADE4E2"/>
<path d="M450.26 317.888H403.771V312.131H450.26V317.888Z" fill="#ADE4E2"/>
<path d="M429.056 326.37H403.771V320.61H429.056V326.37Z" fill="#ADE4E2"/>
<path d="M349.219 345.215H373.3V321.133H349.219V345.215Z" fill="#92C0C3"/>
<path d="M399.267 345.217H375.186V321.134H399.267V345.217Z" fill="#92C0C3"/>
<path d="M297.285 376H450.26V365.634H297.285V376Z" fill="#B9D4CF"/>
<path d="M390.946 394.846V395.7C390.946 396.679 390.142 397.484 389.162 397.484H358.378C357.398 397.484 356.601 396.679 356.601 395.7V394.846H390.946Z" fill="#D5D7D4"/>
<path d="M297.285 365.935V365.634H297.548L297.285 365.935Z" fill="#CEE1DC"/>
<path d="M256 416.679C256 417.409 266.552 418 279.567 418C292.582 418 303.133 417.409 303.133 416.679C303.133 415.948 292.582 415.355 279.567 415.355C266.552 415.355 256 415.948 256 416.679Z" fill="white" fill-opacity="0.6"/>
<path d="M302.113 339.825V412.176C302.113 414.517 300.218 416.424 297.877 416.424H261.268C258.915 416.424 257.021 414.517 257.021 412.176V339.825C257.021 337.483 258.915 335.576 261.268 335.576H297.877C298.335 335.576 298.781 335.652 299.19 335.774C300.887 336.344 302.113 337.942 302.113 339.825Z" fill="#121E2E"/>
<path d="M262.5 339.823H296.639C297.322 339.823 297.875 340.376 297.875 341.059V407.141C297.875 407.824 297.322 408.379 296.639 408.379H262.5C261.816 408.379 261.263 407.824 261.263 407.141V341.059C261.263 340.376 261.816 339.823 262.5 339.823Z" fill="white"/>
<path d="M264.544 362.736H285.595V341.685H264.544V362.736Z" fill="#EF4E3E"/>
<path d="M275.07 385.558C269.256 385.558 264.544 380.845 264.544 375.032C264.544 369.217 269.256 364.506 275.07 364.506C280.883 364.506 285.595 369.217 285.595 375.032C285.595 380.845 280.883 385.558 275.07 385.558Z" fill="#92C0C3"/>
<path d="M279.569 414.45C278.38 414.45 277.418 413.487 277.418 412.299V412.298C277.418 411.11 278.38 410.145 279.569 410.145C280.758 410.145 281.723 411.11 281.723 412.298V412.299C281.723 413.487 280.758 414.45 279.569 414.45Z" fill="#24354A"/>
<path d="M264.544 404.578H273.605V387.327H264.544V404.578Z" fill="#92C0C3"/>
<path d="M275.039 404.578H284.101V387.327H275.039V404.578Z" fill="#92C0C3"/>
<path d="M294.595 404.578H285.534V387.326H294.595V404.578Z" fill="#B9D4CF"/>
<path d="M287.228 349.052H294.595V341.685H287.228V349.052Z" fill="#2A6794"/>
<path d="M456.399 335.493L444.125 347.768L431.851 335.493L444.125 323.22L456.399 335.493Z" fill="#EF4E3E"/>
<mask id="mask1_273_155662" style="mask-type:luminance" maskUnits="userSpaceOnUse" x="333" y="272" width="2" height="3">
<path d="M333.135 274.917V272.974H334.831L333.135 274.917Z" fill="white"/>
</mask>
<g mask="url(#mask1_273_155662)">
<path d="M333.135 274.917H334.832V272.974H333.135V274.917Z" fill="#0E1924"/>
</g>
<path d="M333.141 300.851H333.14L333.141 300.85V300.851Z" fill="#859FA3"/>
<path d="M339.333 294.66V294.659L339.332 294.66H339.333Z" fill="white"/>
<defs>
<linearGradient id="paint0_linear_273_155662" x1="239" y1="261" x2="556.499" y2="503.232" gradientUnits="userSpaceOnUse">
<stop stop-color="#61C9F3"/>
<stop offset="1" stop-color="#00B6FF"/>
</linearGradient>
<clipPath id="clip0_273_155662">
<rect width="809.385" height="420" fill="white"/>
</clipPath>
</defs>
</svg>
